<?xml version="1.0" encoding="utf-8"?>
<svg width="900px" height="712px" viewBox="0 0 900 712" version="1.1" xmlns:xlink="http://www.w3.org/1999/xlink" xmlns="http://www.w3.org/2000/svg">
  <desc>Created with Lunacy</desc>
  <defs>
    <linearGradient x1="0" y1="0" x2="1" y2="1" id="gradient_1">
      <stop offset="0" stop-color="#009EFF" />
      <stop offset="1" stop-color="#30CCC6" />
    </linearGradient>
  </defs>
  <g id="Group-2" transform="translate(1 1)">
    <path d="M1.999 0L189.001 0Q189.099 0 189.197 0.00962573Q189.295 0.0192515 189.391 0.0384102Q189.487 0.057569 189.581 0.0860763Q189.675 0.114584 189.766 0.152165Q189.857 0.189746 189.943 0.236039Q190.03 0.282333 190.112 0.336892Q190.193 0.391452 190.269 0.453752Q190.345 0.516052 190.414 0.585494Q190.484 0.654935 190.546 0.730848Q190.609 0.806761 190.663 0.888415Q190.718 0.970069 190.764 1.05668Q190.81 1.14329 190.848 1.23402Q190.885 1.32474 190.914 1.41872Q190.942 1.5127 190.962 1.60901Q190.981 1.70533 190.99 1.80306Q191 1.9008 191 1.999L191 130.001Q191 130.099 190.99 130.197Q190.981 130.295 190.962 130.391Q190.942 130.487 190.914 130.581Q190.885 130.675 190.848 130.766Q190.81 130.857 190.764 130.943Q190.718 131.03 190.663 131.112Q190.609 131.193 190.546 131.269Q190.484 131.345 190.414 131.414Q190.345 131.484 190.269 131.546Q190.193 131.609 190.112 131.663Q190.03 131.718 189.943 131.764Q189.857 131.81 189.766 131.848Q189.675 131.885 189.581 131.914Q189.487 131.942 189.391 131.962Q189.295 131.981 189.197 131.99Q189.099 132 189.001 132L1.999 132Q1.9008 132 1.80306 131.99Q1.70533 131.981 1.60901 131.962Q1.5127 131.942 1.41872 131.914Q1.32474 131.885 1.23402 131.848Q1.14329 131.81 1.05668 131.764Q0.970069 131.718 0.888415 131.663Q0.806761 131.609 0.730848 131.546Q0.654935 131.484 0.585494 131.415Q0.516052 131.345 0.453752 131.269Q0.391452 131.193 0.336892 131.112Q0.282333 131.03 0.236039 130.943Q0.189746 130.857 0.152165 130.766Q0.114584 130.675 0.0860763 130.581Q0.057569 130.487 0.0384102 130.391Q0.0192515 130.295 0.00962573 130.197Q0 130.099 0 130.001L0 1.999Q0 1.9008 0.00962573 1.80306Q0.0192515 1.70533 0.0384102 1.60901Q0.057569 1.5127 0.0860763 1.41872Q0.114584 1.32474 0.152165 1.23402Q0.189746 1.14329 0.236039 1.05668Q0.282333 0.970069 0.336892 0.888415Q0.391452 0.806761 0.453752 0.730848Q0.516052 0.654935 0.585494 0.585494Q0.654935 0.516052 0.730848 0.453752Q0.806761 0.391452 0.888415 0.336892Q0.970069 0.282333 1.05668 0.236039Q1.14329 0.189746 1.23402 0.152165Q1.32474 0.114584 1.41872 0.0860763Q1.5127 0.057569 1.60901 0.0384102Q1.70533 0.0192515 1.80306 0.00962573Q1.9008 0 1.999 0L1.999 0Z" transform="translate(126 436)" id="Rectangle" fill="#F5F5F5" fill-rule="evenodd" stroke="none" />
    <path d="M79 158C122.63 158 158 122.63 158 79C158 35.3695 122.63 0 79 0C35.3695 0 0 35.3695 0 79C0 122.63 35.3695 158 79 158Z" transform="translate(614 391)" id="Oval" fill="#F5F5F5" fill-rule="evenodd" stroke="none" />
    <path d="M0 0.5L769 0.5" transform="translate(9.094947E-13 568)" id="Stroke-56" fill="none" fill-rule="evenodd" stroke="#111010" stroke-width="2" />
    <path d="M9.99835 233C4.47714 233 0 228.53 0 223.016L0 9.98412C0 4.46966 4.47714 0 9.99835 0L366.002 0C371.523 0 376 4.46966 376 9.98412L376 223.016C376 228.53 371.523 233 366.002 233L9.99835 233Z" transform="translate(475 16)" id="Fill-1" fill="#F5F5F5" fill-rule="evenodd" stroke="none" />
    <path d="M9.99835 233C4.47714 233 0 228.53 0 223.016L0 9.98412C0 4.46966 4.47714 0 9.99835 0L366.002 0C371.523 0 376 4.46966 376 9.98412L376 223.016C376 228.53 371.523 233 366.002 233L9.99835 233Z" transform="translate(466 25)" id="Fill-1" fill="none" fill-rule="evenodd" stroke="#262332" stroke-width="2" stroke-linecap="round" />
    <path d="M167.049 17.464L245 97.8534L181.857 97.8534L163.113 83.4633L147.107 178L57.5861 177.941L57.5861 170.707L57.5491 170.705L57.5491 168.039C48.2254 167.139 40.0493 166.08 33.1544 164.963C10.0959 161.227 -0.246008 155.335 0.00443767 133.235C0.466883 92.386 35.9643 16.3984 35.9643 16.3984L96.783 0L119.382 0.931937L167.049 17.464ZM57.5861 132.937L57.5491 132.933L57.5491 134.69L45.4327 130.263C45.4327 130.263 57.5861 91.3298 57.5861 87.3054L57.5861 132.937Z" transform="translate(233 391)" id="Combined-Shape" fill="url(#gradient_1)" fill-rule="evenodd" stroke="none" />
    <path d="M241 92.6302L167.312 17.4009L127.972 3.72103L96.9354 0L36.0209 16.3392C36.0209 16.3392 0.467618 92.0523 0.00444465 132.754C-0.246395 154.774 10.1118 160.645 33.2066 164.367C49.0844 166.926 70.9822 169.079 99.5912 169.696C99.5912 169.696 102.393 159.25 104.289 151.156L45.5042 129.793C45.5042 129.793 57.6767 91 57.6767 86.9901L57.6767 133.714L104.289 151.156L99.5637 169.9L57.6767 167.496L57.6767 182L147.109 182L162.967 83.3872L186.107 100.945" transform="translate(227 386)" id="Combined-Shape" fill="none" fill-rule="evenodd" stroke="#262332" stroke-width="2" stroke-linecap="round" />
    <path d="M2.25629 0L0 30.8131C0 30.8131 15.5589 41.812 31.5892 34.4794L34 6.06117L2.25629 0Z" transform="translate(324 356)" id="Fill-18" fill="#FFFFFF" fill-rule="evenodd" stroke="none" />
    <path d="M2.25629 0L0 30.8131C0 30.8131 15.5589 41.812 31.5892 34.4794L34 6.06117L2.25629 0Z" transform="translate(324 356)" id="Fill-18" fill="none" fill-rule="evenodd" stroke="#262332" stroke-width="2" stroke-linecap="round" />
    <path d="M0 0C0 0 20.2456 27.3818 25.6371 24.8324C31.0286 22.2831 32 11.098 32 11.098L0 0Z" transform="translate(326 356)" id="Fill-20" fill="#262332" fill-rule="evenodd" stroke="none" />
    <path d="M97.5786 16.3227C97.5786 16.3227 103.1 75.1733 74.1687 97.0261C67.5489 102.027 49.9762 96.4062 41.455 92.5269C18.6616 82.1518 21.1928 57.7279 21.1928 57.7279C21.1928 57.7279 17.7418 71.1525 3.07342 48.513C-7.38583 32.3682 11.6002 22.371 19.0711 31.4423L19.122 4.92456L59.8456 0L97.5786 16.3227Z" transform="translate(291 268)" id="Fill-22" fill="#FFFFFF" fill-rule="evenodd" stroke="none" />
    <path d="M97.5786 16.3227C97.5786 16.3227 103.1 75.1733 74.1687 97.0261C67.5489 102.027 49.9762 96.4062 41.455 92.5269C18.6616 82.1518 21.1928 57.7279 21.1928 57.7279C21.1928 57.7279 17.7418 71.1525 3.07342 48.513C-7.38583 32.3682 11.6002 22.371 19.0711 31.4423L19.122 4.92456L59.8456 0L97.5786 16.3227Z" transform="translate(291 268)" id="Fill-22" fill="none" fill-rule="evenodd" stroke="#262332" stroke-width="2" stroke-linecap="round" />
    <path d="M51.0968 56.2377C59.4398 58.1056 54.7466 47.2602 54.7466 47.2602C54.7466 47.2602 78.7323 62.4112 87.0742 52.16C87.0742 52.16 90.4542 66.9726 89.0641 76.7568C92.5823 72.2797 107.42 57.508 113.261 27.5246C118.127 2.54066 98.0237 -3.69149 80.8749 1.89996C63.7273 7.49031 30.0374 12.3935 20.3343 16.0518C0.867908 23.3894 -3.51766 41.6742 2.5189 63.6483C2.5189 63.6483 10.4272 64.0998 11.5275 67.7105C12.6289 71.3212 14.9454 80 14.9454 80L18.2485 80C18.2485 80 18.2485 70.3021 17.0312 66.9824C15.8149 63.6627 12.8106 43.9836 23.3464 47.5014C35.5121 51.5636 42.7537 54.3698 51.0968 56.2377Z" transform="translate(299 233)" id="Fill-24" fill="#262332" fill-rule="evenodd" stroke="none" />
    <path d="M8 3C8 3 4.64255 -2.04549 0 0.950053" transform="translate(300 302)" id="Stroke-26" fill="none" fill-rule="evenodd" stroke="#262332" stroke-width="2" stroke-linecap="round" />
    <path d="M0 0C0 0 6.91778 4.5 11 0" transform="translate(361 347)" id="Stroke-28" fill="none" fill-rule="evenodd" stroke="#262332" stroke-width="2" stroke-linecap="round" />
    <path d="M4.70842 5.38491L9.51835 6.46887C9.51835 6.46887 31.124 -0.83375 33.472 0.0789418C35.8212 0.991634 52.3068 21.9445 50.917 23.5672C50.1038 24.5168 42.5721 27.7491 40.3333 26.8408C37.1509 25.5508 32.834 20.9961 30.5651 17.5122C30.5651 17.5122 24.7156 26.5849 17.5509 26.0115C10.3873 25.4381 0 24.1731 0 24.1731C0 24.1731 2.71507 9.37929 4.70842 5.38491" transform="translate(327 532)" id="Fill-34" fill="#FFFFFF" fill-rule="evenodd" stroke="none" />
    <path d="M4.70842 5.38491L9.51835 6.46887C9.51835 6.46887 31.124 -0.83375 33.472 0.0789418C35.8212 0.991634 52.3068 21.9445 50.917 23.5672C50.1038 24.5168 42.5721 27.7491 40.3333 26.8408C37.1509 25.5508 32.834 20.9961 30.5651 17.5122C30.5651 17.5122 24.7156 26.5849 17.5509 26.0115C10.3873 25.4381 0 24.1731 0 24.1731C0 24.1731 2.71507 9.37929 4.70842 5.38491" transform="translate(327 532)" id="Fill-34" fill="none" fill-rule="evenodd" stroke="#262332" stroke-width="2" stroke-linecap="round" />
    <path d="M141.869 90L0 90L33.1306 0L175 0L141.869 90Z" transform="translate(372 478)" id="Fill-36" fill="#FFFFFF" fill-rule="evenodd" stroke="none" />
    <path d="M141.869 90L0 90L33.1306 0L175 0L141.869 90Z" transform="translate(372 478)" id="Stroke-38" fill="none" fill-rule="evenodd" stroke="#262332" stroke-width="2" stroke-linecap="round" />
    <path d="M2.79737 0L144 0L141.203 7L0 7L2.79737 0Z" transform="translate(373 561)" id="Fill-40" fill="#FFFFFF" fill-rule="evenodd" stroke="none" />
    <path d="M2.79737 0L144 0L141.203 7L0 7L2.79737 0Z" transform="translate(372 561)" id="Stroke-42" fill="none" fill-rule="evenodd" stroke="#262332" stroke-width="2" stroke-linecap="round" />
    <path d="M2.87125 0L59 0L56.1287 7L0 7L2.87125 0Z" transform="translate(317 561)" id="Fill-44" fill="#FFFFFF" fill-rule="evenodd" stroke="none" />
    <path d="M2.82259 0L58 0L55.1774 7L0 7L2.82259 0Z" transform="translate(317 561)" id="Stroke-46" fill="none" fill-rule="evenodd" stroke="#262332" stroke-width="2" stroke-linecap="round" />
    <path d="M42 2C42 2 13.416 0.674265 -2.38742e-12 -5.68434e-14" transform="translate(285 554)" id="Stroke-52" fill="none" fill-rule="evenodd" stroke="#262332" stroke-width="2" stroke-linecap="round" />
    <path d="M14.9758 12.6277C12.8135 17.1752 7.93833 19.2376 4.08531 17.234C0.233385 15.2316 -1.13687 9.92022 1.02426 5.37273C3.18539 0.825233 8.0617 -1.2371 11.9136 0.765322C15.7667 2.76889 17.1369 8.08025 14.9758 12.6277" transform="translate(453 514)" id="Fill-54" fill="#C6C4CF" fill-rule="evenodd" stroke="none" />
    <path d="M7.54286 3.5C7.54286 5.43317 5.85452 7 3.77143 7C1.68834 7 0 5.43317 0 3.5C0 1.56683 1.68834 0 3.77143 0C5.85452 0 7.54286 1.56683 7.54286 3.5ZM19.8 3.5C19.8 5.43317 18.1117 7 16.0286 7C13.9455 7 12.2571 5.43317 12.2571 3.5C12.2571 1.56683 13.9455 0 16.0286 0C18.1117 0 19.8 1.56683 19.8 3.5ZM29.2286 7C31.3117 7 33 5.43317 33 3.5C33 1.56683 31.3117 0 29.2286 0C27.1455 0 25.4571 1.56683 25.4571 3.5C25.4571 5.43317 27.1455 7 29.2286 7Z" transform="translate(480 39)" id="Combined-Shape" fill="#FFFFFF" fill-rule="evenodd" stroke="none" />
    <path d="M7.54286 3.5C7.54286 5.43317 5.85452 7 3.77143 7C1.68834 7 0 5.43317 0 3.5C0 1.56683 1.68834 0 3.77143 0C5.85452 0 7.54286 1.56683 7.54286 3.5ZM19.8 3.5C19.8 5.43317 18.1117 7 16.0286 7C13.9455 7 12.2571 5.43317 12.2571 3.5C12.2571 1.56683 13.9455 0 16.0286 0C18.1117 0 19.8 1.56683 19.8 3.5ZM29.2286 7C31.3117 7 33 5.43317 33 3.5C33 1.56683 31.3117 0 29.2286 0C27.1455 0 25.4571 1.56683 25.4571 3.5C25.4571 5.43317 27.1455 7 29.2286 7Z" transform="translate(480 39)" id="Combined-Shape" fill="none" fill-rule="evenodd" stroke="#262332" stroke-width="2" stroke-linecap="round" />
    <path d="M0.5 0L0.5 198" transform="translate(544 46)" id="Stroke-85" fill="none" fill-rule="evenodd" stroke="#262332" stroke-width="2" stroke-linecap="round" />
    <path d="M1.999 0L69.001 0Q69.0992 0 69.1969 0.00962573Q69.2947 0.0192515 69.391 0.0384102Q69.4873 0.057569 69.5813 0.0860763Q69.6752 0.114584 69.766 0.152165Q69.8567 0.189746 69.9433 0.236039Q70.0299 0.282333 70.1116 0.336892Q70.1932 0.391452 70.2691 0.453752Q70.3451 0.516052 70.4145 0.585494Q70.4839 0.654935 70.5462 0.730848Q70.6085 0.806761 70.6631 0.888415Q70.7177 0.970069 70.7639 1.05668Q70.8102 1.14329 70.8478 1.23402Q70.8854 1.32474 70.9139 1.41872Q70.9424 1.5127 70.9616 1.60901Q70.9807 1.70533 70.9904 1.80306Q71 1.9008 71 1.999L71 25.001Q71 25.0992 70.9904 25.1969Q70.9807 25.2947 70.9616 25.391Q70.9424 25.4873 70.9139 25.5813Q70.8854 25.6753 70.8478 25.766Q70.8102 25.8567 70.764 25.9433Q70.7177 26.0299 70.6631 26.1116Q70.6085 26.1932 70.5462 26.2691Q70.4839 26.3451 70.4145 26.4145Q70.3451 26.4839 70.2691 26.5462Q70.1932 26.6085 70.1116 26.6631Q70.0299 26.7177 69.9433 26.764Q69.8567 26.8103 69.766 26.8478Q69.6752 26.8854 69.5813 26.9139Q69.4873 26.9424 69.391 26.9616Q69.2947 26.9807 69.1969 26.9904Q69.0992 27 69.001 27L1.999 27Q1.9008 27 1.80306 26.9904Q1.70533 26.9807 1.60901 26.9616Q1.5127 26.9424 1.41872 26.9139Q1.32474 26.8854 1.23402 26.8478Q1.14329 26.8103 1.05668 26.764Q0.970069 26.7177 0.888415 26.6631Q0.806761 26.6085 0.730848 26.5462Q0.654935 26.4839 0.585494 26.4145Q0.516052 26.3451 0.453752 26.2691Q0.391452 26.1932 0.336892 26.1116Q0.282333 26.0299 0.236039 25.9433Q0.189746 25.8567 0.152165 25.766Q0.114584 25.6753 0.0860763 25.5813Q0.057569 25.4873 0.0384102 25.391Q0.0192515 25.2947 0.00962573 25.1969Q0 25.0992 0 25.001L0 1.999Q0 1.9008 0.00962573 1.80306Q0.0192515 1.70533 0.0384102 1.60901Q0.057569 1.5127 0.0860763 1.41872Q0.114584 1.32474 0.152165 1.23402Q0.189746 1.14329 0.236039 1.05668Q0.282333 0.970069 0.336892 0.888415Q0.391452 0.806761 0.453752 0.730848Q0.516052 0.654935 0.585494 0.585494Q0.654935 0.516052 0.730848 0.453752Q0.806761 0.391452 0.888415 0.336892Q0.970069 0.282333 1.05668 0.236039Q1.14329 0.189746 1.23402 0.152165Q1.32474 0.114584 1.41872 0.0860763Q1.5127 0.057569 1.60901 0.0384102Q1.70533 0.0192515 1.80306 0.00962573Q1.9008 0 1.999 0L1.999 0Z" transform="translate(566 175)" id="Rectangle" fill="none" fill-rule="evenodd" stroke="#262332" stroke-width="2" stroke-linecap="round" />
    <path d="M1.999 0L69.001 0Q69.0992 0 69.1969 0.00962573Q69.2947 0.0192515 69.391 0.0384102Q69.4873 0.057569 69.5813 0.0860763Q69.6752 0.114584 69.766 0.152165Q69.8567 0.189746 69.9433 0.236039Q70.0299 0.282333 70.1116 0.336892Q70.1932 0.391452 70.2691 0.453752Q70.3451 0.516052 70.4145 0.585494Q70.4839 0.654935 70.5462 0.730848Q70.6085 0.806761 70.6631 0.888415Q70.7177 0.970069 70.7639 1.05668Q70.8102 1.14329 70.8478 1.23402Q70.8854 1.32474 70.9139 1.41872Q70.9424 1.5127 70.9616 1.60901Q70.9807 1.70533 70.9904 1.80306Q71 1.9008 71 1.999L71 25.001Q71 25.0992 70.9904 25.1969Q70.9807 25.2947 70.9616 25.391Q70.9424 25.4873 70.9139 25.5813Q70.8854 25.6753 70.8478 25.766Q70.8102 25.8567 70.764 25.9433Q70.7177 26.0299 70.6631 26.1116Q70.6085 26.1932 70.5462 26.2691Q70.4839 26.3451 70.4145 26.4145Q70.3451 26.4839 70.2691 26.5462Q70.1932 26.6085 70.1116 26.6631Q70.0299 26.7177 69.9433 26.764Q69.8567 26.8103 69.766 26.8478Q69.6752 26.8854 69.5813 26.9139Q69.4873 26.9424 69.391 26.9616Q69.2947 26.9807 69.1969 26.9904Q69.0992 27 69.001 27L1.999 27Q1.9008 27 1.80306 26.9904Q1.70533 26.9807 1.60901 26.9616Q1.5127 26.9424 1.41872 26.9139Q1.32474 26.8854 1.23402 26.8478Q1.14329 26.8103 1.05668 26.764Q0.970069 26.7177 0.888415 26.6631Q0.806761 26.6085 0.730848 26.5462Q0.654935 26.4839 0.585494 26.4145Q0.516052 26.3451 0.453752 26.2691Q0.391452 26.1932 0.336892 26.1116Q0.282333 26.0299 0.236039 25.9433Q0.189746 25.8567 0.152165 25.766Q0.114584 25.6753 0.0860763 25.5813Q0.057569 25.4873 0.0384102 25.391Q0.0192515 25.2947 0.00962573 25.1969Q0 25.0992 0 25.001L0 1.999Q0 1.9008 0.00962573 1.80306Q0.0192515 1.70533 0.0384102 1.60901Q0.057569 1.5127 0.0860763 1.41872Q0.114584 1.32474 0.152165 1.23402Q0.189746 1.14329 0.236039 1.05668Q0.282333 0.970069 0.336892 0.888415Q0.391452 0.806761 0.453752 0.730848Q0.516052 0.654935 0.585494 0.585494Q0.654935 0.516052 0.730848 0.453752Q0.806761 0.391452 0.888415 0.336892Q0.970069 0.282333 1.05668 0.236039Q1.14329 0.189746 1.23402 0.152165Q1.32474 0.114584 1.41872 0.0860763Q1.5127 0.057569 1.60901 0.0384102Q1.70533 0.0192515 1.80306 0.00962573Q1.9008 0 1.999 0L1.999 0Z" transform="translate(655 175)" id="Rectangle-Copy-28" fill="none" fill-rule="evenodd" stroke="#262332" stroke-width="2" stroke-linecap="round" />
    <path d="M1.999 0L69.001 0Q69.0992 0 69.1969 0.00962573Q69.2947 0.0192515 69.391 0.0384102Q69.4873 0.057569 69.5813 0.0860763Q69.6752 0.114584 69.766 0.152165Q69.8567 0.189746 69.9433 0.236039Q70.0299 0.282333 70.1116 0.336892Q70.1932 0.391452 70.2691 0.453752Q70.3451 0.516052 70.4145 0.585494Q70.4839 0.654935 70.5462 0.730848Q70.6085 0.806761 70.6631 0.888415Q70.7177 0.970069 70.7639 1.05668Q70.8102 1.14329 70.8478 1.23402Q70.8854 1.32474 70.9139 1.41872Q70.9424 1.5127 70.9616 1.60901Q70.9807 1.70533 70.9904 1.80306Q71 1.9008 71 1.999L71 25.001Q71 25.0992 70.9904 25.1969Q70.9807 25.2947 70.9616 25.391Q70.9424 25.4873 70.9139 25.5813Q70.8854 25.6753 70.8478 25.766Q70.8102 25.8567 70.764 25.9433Q70.7177 26.0299 70.6631 26.1116Q70.6085 26.1932 70.5462 26.2691Q70.4839 26.3451 70.4145 26.4145Q70.3451 26.4839 70.2691 26.5462Q70.1932 26.6085 70.1116 26.6631Q70.0299 26.7177 69.9433 26.764Q69.8567 26.8103 69.766 26.8478Q69.6752 26.8854 69.5813 26.9139Q69.4873 26.9424 69.391 26.9616Q69.2947 26.9807 69.1969 26.9904Q69.0992 27 69.001 27L1.999 27Q1.9008 27 1.80306 26.9904Q1.70533 26.9807 1.60901 26.9616Q1.5127 26.9424 1.41872 26.9139Q1.32474 26.8854 1.23402 26.8478Q1.14329 26.8103 1.05668 26.764Q0.970069 26.7177 0.888415 26.6631Q0.806761 26.6085 0.730848 26.5462Q0.654935 26.4839 0.585494 26.4145Q0.516052 26.3451 0.453752 26.2691Q0.391452 26.1932 0.336892 26.1116Q0.282333 26.0299 0.236039 25.9433Q0.189746 25.8567 0.152165 25.766Q0.114584 25.6753 0.0860763 25.5813Q0.057569 25.4873 0.0384102 25.391Q0.0192515 25.2947 0.00962573 25.1969Q0 25.0992 0 25.001L0 1.999Q0 1.9008 0.00962573 1.80306Q0.0192515 1.70533 0.0384102 1.60901Q0.057569 1.5127 0.0860763 1.41872Q0.114584 1.32474 0.152165 1.23402Q0.189746 1.14329 0.236039 1.05668Q0.282333 0.970069 0.336892 0.888415Q0.391452 0.806761 0.453752 0.730848Q0.516052 0.654935 0.585494 0.585494Q0.654935 0.516052 0.730848 0.453752Q0.806761 0.391452 0.888415 0.336892Q0.970069 0.282333 1.05668 0.236039Q1.14329 0.189746 1.23402 0.152165Q1.32474 0.114584 1.41872 0.0860763Q1.5127 0.057569 1.60901 0.0384102Q1.70533 0.0192515 1.80306 0.00962573Q1.9008 0 1.999 0L1.999 0Z" transform="translate(744 175)" id="Rectangle-Copy-29" fill="none" fill-rule="evenodd" stroke="#262332" stroke-width="2" stroke-linecap="round" />
    <path d="M1.999 0L246.001 0Q246.099 0 246.197 0.00962573Q246.295 0.0192515 246.391 0.0384102Q246.487 0.057569 246.581 0.0860763Q246.675 0.114584 246.766 0.152165Q246.857 0.189746 246.943 0.236039Q247.03 0.282333 247.112 0.336892Q247.193 0.391452 247.269 0.453752Q247.345 0.516052 247.414 0.585494Q247.484 0.654935 247.546 0.730848Q247.609 0.806761 247.663 0.888415Q247.718 0.970069 247.764 1.05668Q247.81 1.14329 247.848 1.23402Q247.885 1.32474 247.914 1.41872Q247.942 1.5127 247.962 1.60901Q247.981 1.70533 247.99 1.80306Q248 1.9008 248 1.999L248 76.001Q248 76.0992 247.99 76.1969Q247.981 76.2947 247.962 76.391Q247.942 76.4873 247.914 76.5813Q247.885 76.6753 247.848 76.766Q247.81 76.8567 247.764 76.9433Q247.718 77.0299 247.663 77.1116Q247.609 77.1932 247.546 77.2692Q247.484 77.3451 247.414 77.4145Q247.345 77.484 247.269 77.5462Q247.193 77.6086 247.112 77.6631Q247.03 77.7177 246.943 77.764Q246.857 77.8103 246.766 77.8478Q246.675 77.8854 246.581 77.9139Q246.487 77.9424 246.391 77.9616Q246.295 77.9807 246.197 77.9904Q246.099 78 246.001 78L1.999 78Q1.9008 78 1.80306 77.9904Q1.70533 77.9807 1.60901 77.9616Q1.5127 77.9424 1.41872 77.9139Q1.32474 77.8854 1.23402 77.8478Q1.14329 77.8103 1.05668 77.764Q0.970069 77.7177 0.888415 77.6631Q0.806761 77.6086 0.730848 77.5462Q0.654935 77.484 0.585494 77.4145Q0.516052 77.3451 0.453752 77.2692Q0.391452 77.1932 0.336892 77.1116Q0.282333 77.0299 0.236039 76.9433Q0.189746 76.8567 0.152165 76.766Q0.114584 76.6753 0.0860763 76.5813Q0.057569 76.4873 0.0384102 76.391Q0.0192515 76.2947 0.00962573 76.1969Q0 76.0992 0 76.001L0 39L0 1.999Q0 1.9008 0.00962573 1.80306Q0.0192515 1.70533 0.0384102 1.60901Q0.057569 1.5127 0.0860763 1.41872Q0.114584 1.32474 0.152165 1.23402Q0.189746 1.14329 0.236039 1.05668Q0.282333 0.970069 0.336892 0.888415Q0.391452 0.806761 0.453752 0.730848Q0.516052 0.654935 0.585494 0.585494Q0.654935 0.516052 0.730848 0.453752Q0.806761 0.391452 0.888415 0.336892Q0.970069 0.282333 1.05668 0.236039Q1.14329 0.189746 1.23402 0.152165Q1.32474 0.114584 1.41872 0.0860763Q1.5127 0.057569 1.60901 0.0384102Q1.70533 0.0192515 1.80306 0.00962573Q1.9008 0 1.999 0L1.999 0Z" transform="translate(572 86)" id="Rectangle" fill="#FFFFFF" fill-rule="evenodd" stroke="none" />
    <path d="M1.999 0L246.001 0Q246.099 0 246.197 0.00962573Q246.295 0.0192515 246.391 0.0384102Q246.487 0.057569 246.581 0.0860763Q246.675 0.114584 246.766 0.152165Q246.857 0.189746 246.943 0.236039Q247.03 0.282333 247.112 0.336892Q247.193 0.391452 247.269 0.453752Q247.345 0.516052 247.414 0.585494Q247.484 0.654935 247.546 0.730848Q247.609 0.806761 247.663 0.888415Q247.718 0.970069 247.764 1.05668Q247.81 1.14329 247.848 1.23402Q247.885 1.32474 247.914 1.41872Q247.942 1.5127 247.962 1.60901Q247.981 1.70533 247.99 1.80306Q248 1.9008 248 1.999L248 76.001Q248 76.0992 247.99 76.1969Q247.981 76.2947 247.962 76.391Q247.942 76.4873 247.914 76.5813Q247.885 76.6753 247.848 76.766Q247.81 76.8567 247.764 76.9433Q247.718 77.0299 247.663 77.1116Q247.609 77.1932 247.546 77.2692Q247.484 77.3451 247.414 77.4145Q247.345 77.484 247.269 77.5462Q247.193 77.6086 247.112 77.6631Q247.03 77.7177 246.943 77.764Q246.857 77.8103 246.766 77.8478Q246.675 77.8854 246.581 77.9139Q246.487 77.9424 246.391 77.9616Q246.295 77.9807 246.197 77.9904Q246.099 78 246.001 78L1.999 78Q1.9008 78 1.80306 77.9904Q1.70533 77.9807 1.60901 77.9616Q1.5127 77.9424 1.41872 77.9139Q1.32474 77.8854 1.23402 77.8478Q1.14329 77.8103 1.05668 77.764Q0.970069 77.7177 0.888415 77.6631Q0.806761 77.6086 0.730848 77.5462Q0.654935 77.484 0.585494 77.4145Q0.516052 77.3451 0.453752 77.2692Q0.391452 77.1932 0.336892 77.1116Q0.282333 77.0299 0.236039 76.9433Q0.189746 76.8567 0.152165 76.766Q0.114584 76.6753 0.0860763 76.5813Q0.057569 76.4873 0.0384102 76.391Q0.0192515 76.2947 0.00962573 76.1969Q0 76.0992 0 76.001L0 39L0 1.999Q0 1.9008 0.00962573 1.80306Q0.0192515 1.70533 0.0384102 1.60901Q0.057569 1.5127 0.0860763 1.41872Q0.114584 1.32474 0.152165 1.23402Q0.189746 1.14329 0.236039 1.05668Q0.282333 0.970069 0.336892 0.888415Q0.391452 0.806761 0.453752 0.730848Q0.516052 0.654935 0.585494 0.585494Q0.654935 0.516052 0.730848 0.453752Q0.806761 0.391452 0.888415 0.336892Q0.970069 0.282333 1.05668 0.236039Q1.14329 0.189746 1.23402 0.152165Q1.32474 0.114584 1.41872 0.0860763Q1.5127 0.057569 1.60901 0.0384102Q1.70533 0.0192515 1.80306 0.00962573Q1.9008 0 1.999 0L1.999 0Z" transform="translate(566 80)" id="Rectangle" fill="none" fill-rule="evenodd" stroke="#262332" stroke-width="2" stroke-linecap="round" />
    <path d="M84.0156 37.7406L84.2277 0.463413M94 27.3415L0 27.3415" transform="translate(191 1)" id="Combined-Shape" fill="none" fill-rule="evenodd" stroke="#262332" stroke-width="2" stroke-linecap="round" />
    <path d="M1.999 0L11.001 0Q11.0992 0 11.1969 0.00962573Q11.2947 0.0192515 11.391 0.0384102Q11.4873 0.057569 11.5813 0.0860763Q11.6753 0.114584 11.766 0.152165Q11.8567 0.189746 11.9433 0.236039Q12.0299 0.282333 12.1116 0.336892Q12.1932 0.391452 12.2692 0.453752Q12.3451 0.516052 12.4145 0.585494Q12.4839 0.654935 12.5462 0.730848Q12.6085 0.806761 12.6631 0.888415Q12.7177 0.970069 12.764 1.05668Q12.8103 1.14329 12.8478 1.23402Q12.8854 1.32474 12.9139 1.41872Q12.9424 1.5127 12.9616 1.60901Q12.9807 1.70533 12.9904 1.80306Q13 1.9008 13 1.999L13 11.001Q13 11.0992 12.9904 11.1969Q12.9807 11.2947 12.9616 11.391Q12.9424 11.4873 12.9139 11.5813Q12.8854 11.6753 12.8478 11.766Q12.8103 11.8567 12.764 11.9433Q12.7177 12.0299 12.6631 12.1116Q12.6085 12.1932 12.5462 12.2692Q12.4839 12.3451 12.4145 12.4145Q12.3451 12.4839 12.2692 12.5462Q12.1932 12.6085 12.1116 12.6631Q12.0299 12.7177 11.9433 12.764Q11.8567 12.8103 11.766 12.8478Q11.6753 12.8854 11.5813 12.9139Q11.4873 12.9424 11.391 12.9616Q11.2947 12.9807 11.1969 12.9904Q11.0992 13 11.001 13L1.999 13Q1.9008 13 1.80306 12.9904Q1.70533 12.9807 1.60901 12.9616Q1.5127 12.9424 1.41872 12.9139Q1.32474 12.8854 1.23402 12.8478Q1.14329 12.8103 1.05668 12.764Q0.970069 12.7177 0.888415 12.6631Q0.806761 12.6085 0.730848 12.5462Q0.654935 12.4839 0.585494 12.4145Q0.516052 12.3451 0.453752 12.2692Q0.391452 12.1932 0.336892 12.1116Q0.282333 12.0299 0.236039 11.9433Q0.189746 11.8567 0.152165 11.766Q0.114584 11.6753 0.0860763 11.5813Q0.057569 11.4873 0.0384102 11.391Q0.0192515 11.2947 0.00962573 11.1969Q0 11.0992 0 11.001L0 1.999Q0 1.9008 0.00962573 1.80306Q0.0192515 1.70533 0.0384102 1.60901Q0.057569 1.5127 0.0860763 1.41872Q0.114584 1.32474 0.152165 1.23402Q0.189746 1.14329 0.236039 1.05668Q0.282333 0.970069 0.336892 0.888415Q0.391452 0.806761 0.453752 0.730848Q0.516052 0.654935 0.585494 0.585494Q0.654935 0.516052 0.730848 0.453752Q0.806761 0.391452 0.888415 0.336892Q0.970069 0.282333 1.05668 0.236039Q1.14329 0.189746 1.23402 0.152165Q1.32474 0.114584 1.41872 0.0860763Q1.5127 0.057569 1.60901 0.0384102Q1.70533 0.0192515 1.80306 0.00962573Q1.9008 0 1.999 0L1.999 0Z" transform="translate(832 449)" id="Rectangle-Copy-3" fill="none" fill-rule="evenodd" stroke="#262332" stroke-width="2" stroke-linecap="round" />
    <path d="M0 43L7 0" transform="translate(385 458)" id="Path-6" fill="none" fill-rule="evenodd" stroke="#262332" stroke-width="2" stroke-linecap="round" />
    <g id="Group-6" transform="translate(386 78)">
      <path d="M1.999 0L117.404 0Q117.502 0 117.6 0.00962573Q117.698 0.0192515 117.794 0.0384102Q117.89 0.057569 117.984 0.0860763Q118.078 0.114584 118.169 0.152165Q118.26 0.189746 118.346 0.236039Q118.433 0.282333 118.515 0.336892Q118.596 0.391452 118.672 0.453752Q118.748 0.516052 118.817 0.585494Q118.887 0.654935 118.949 0.730848Q119.012 0.806761 119.066 0.888415Q119.121 0.970069 119.167 1.05668Q119.213 1.14329 119.251 1.23402Q119.288 1.32474 119.317 1.41872Q119.345 1.5127 119.365 1.60901Q119.384 1.70533 119.393 1.80306Q119.403 1.9008 119.403 1.999L119.403 47.4078Q119.403 47.506 119.393 47.6037Q119.384 47.7014 119.365 47.7978Q119.345 47.8941 119.317 47.9881Q119.288 48.082 119.251 48.1728Q119.213 48.2635 119.167 48.3501Q119.121 48.4367 119.066 48.5184Q119.012 48.6 118.949 48.6759Q118.887 48.7518 118.817 48.8213Q118.748 48.8907 118.672 48.953Q118.596 49.0153 118.515 49.0699Q118.433 49.1244 118.346 49.1707Q118.26 49.217 118.169 49.2546Q118.078 49.2922 117.984 49.3207Q117.89 49.3492 117.794 49.3684Q117.698 49.3875 117.6 49.3972Q117.502 49.4068 117.404 49.4068L1.999 49.4068Q1.9008 49.4068 1.80306 49.3972Q1.70533 49.3875 1.60901 49.3684Q1.5127 49.3492 1.41872 49.3207Q1.32474 49.2922 1.23402 49.2546Q1.14329 49.217 1.05668 49.1707Q0.970069 49.1244 0.888415 49.0699Q0.806761 49.0153 0.730848 48.953Q0.654935 48.8907 0.585494 48.8213Q0.516052 48.7518 0.453752 48.6759Q0.391452 48.6 0.336892 48.5184Q0.282333 48.4367 0.236039 48.3501Q0.189746 48.2635 0.152165 48.1728Q0.114584 48.082 0.0860763 47.9881Q0.057569 47.8941 0.0384102 47.7978Q0.0192515 47.7014 0.00962573 47.6037Q0 47.506 0 47.4078L0 1.999Q0 1.9008 0.00962573 1.80306Q0.0192515 1.70533 0.0384102 1.60901Q0.057569 1.5127 0.0860763 1.41872Q0.114584 1.32474 0.152165 1.23402Q0.189746 1.14329 0.236039 1.05668Q0.282333 0.970069 0.336892 0.888415Q0.391452 0.806761 0.453752 0.730848Q0.516052 0.654935 0.585494 0.585494Q0.654935 0.516052 0.730848 0.453752Q0.806761 0.391452 0.888415 0.336892Q0.970069 0.282333 1.05668 0.236039Q1.14329 0.189746 1.23402 0.152165Q1.32474 0.114584 1.41872 0.0860763Q1.5127 0.057569 1.60901 0.0384102Q1.70533 0.0192515 1.80306 0.00962573Q1.9008 0 1.999 0L1.999 0Z" transform="translate(5.597015 5.59322)" id="Rectangle" fill="url(#gradient_1)" fill-rule="evenodd" stroke="none" />
      <path d="M1.999 0L117.404 0Q117.502 0 117.6 0.00962573Q117.698 0.0192515 117.794 0.0384102Q117.89 0.057569 117.984 0.0860763Q118.078 0.114584 118.169 0.152165Q118.26 0.189746 118.346 0.236039Q118.433 0.282333 118.515 0.336892Q118.596 0.391452 118.672 0.453752Q118.748 0.516052 118.817 0.585494Q118.887 0.654935 118.949 0.730848Q119.012 0.806761 119.066 0.888415Q119.121 0.970069 119.167 1.05668Q119.213 1.14329 119.251 1.23402Q119.288 1.32474 119.317 1.41872Q119.345 1.5127 119.365 1.60901Q119.384 1.70533 119.393 1.80306Q119.403 1.9008 119.403 1.999L119.403 47.4078Q119.403 47.506 119.393 47.6037Q119.384 47.7014 119.365 47.7978Q119.345 47.8941 119.317 47.9881Q119.288 48.082 119.251 48.1728Q119.213 48.2635 119.167 48.3501Q119.121 48.4367 119.066 48.5184Q119.012 48.6 118.949 48.6759Q118.887 48.7518 118.817 48.8213Q118.748 48.8907 118.672 48.953Q118.596 49.0153 118.515 49.0699Q118.433 49.1244 118.346 49.1707Q118.26 49.217 118.169 49.2546Q118.078 49.2922 117.984 49.3207Q117.89 49.3492 117.794 49.3684Q117.698 49.3875 117.6 49.3972Q117.502 49.4068 117.404 49.4068L1.999 49.4068Q1.9008 49.4068 1.80306 49.3972Q1.70533 49.3875 1.60901 49.3684Q1.5127 49.3492 1.41872 49.3207Q1.32474 49.2922 1.23402 49.2546Q1.14329 49.217 1.05668 49.1707Q0.970069 49.1244 0.888415 49.0699Q0.806761 49.0153 0.730848 48.953Q0.654935 48.8907 0.585494 48.8213Q0.516052 48.7518 0.453752 48.6759Q0.391452 48.6 0.336892 48.5184Q0.282333 48.4367 0.236039 48.3501Q0.189746 48.2635 0.152165 48.1728Q0.114584 48.082 0.0860763 47.9881Q0.057569 47.8941 0.0384102 47.7978Q0.0192515 47.7014 0.00962573 47.6037Q0 47.506 0 47.4078L0 1.999Q0 1.9008 0.00962573 1.80306Q0.0192515 1.70533 0.0384102 1.60901Q0.057569 1.5127 0.0860763 1.41872Q0.114584 1.32474 0.152165 1.23402Q0.189746 1.14329 0.236039 1.05668Q0.282333 0.970069 0.336892 0.888415Q0.391452 0.806761 0.453752 0.730848Q0.516052 0.654935 0.585494 0.585494Q0.654935 0.516052 0.730848 0.453752Q0.806761 0.391452 0.888415 0.336892Q0.970069 0.282333 1.05668 0.236039Q1.14329 0.189746 1.23402 0.152165Q1.32474 0.114584 1.41872 0.0860763Q1.5127 0.057569 1.60901 0.0384102Q1.70533 0.0192515 1.80306 0.00962573Q1.9008 0 1.999 0L1.999 0Z" id="Rectangle" fill="none" fill-rule="evenodd" stroke="#262332" stroke-width="2" stroke-linecap="round" />
      <path d="M1.999 0L26.9189 0Q27.0171 0 27.1148 0.00962573Q27.2126 0.0192515 27.3089 0.0384102Q27.4052 0.057569 27.4992 0.0860763Q27.5932 0.114584 27.6839 0.152165Q27.7746 0.189746 27.8612 0.236039Q27.9478 0.282333 28.0295 0.336892Q28.1111 0.391452 28.1871 0.453752Q28.263 0.516052 28.3324 0.585494Q28.4019 0.654935 28.4642 0.730848Q28.5265 0.806761 28.581 0.888415Q28.6356 0.970069 28.6819 1.05668Q28.7282 1.14329 28.7657 1.23402Q28.8033 1.32474 28.8318 1.41872Q28.8603 1.5127 28.8795 1.60901Q28.8987 1.70533 28.9083 1.80306Q28.9179 1.9008 28.9179 1.999L28.9179 26.8993Q28.9179 26.9975 28.9083 27.0952Q28.8987 27.193 28.8795 27.2893Q28.8603 27.3856 28.8318 27.4796Q28.8033 27.5736 28.7657 27.6643Q28.7282 27.755 28.6819 27.8416Q28.6356 27.9282 28.581 28.0099Q28.5265 28.0915 28.4642 28.1675Q28.4019 28.2434 28.3324 28.3128Q28.263 28.3823 28.1871 28.4445Q28.1111 28.5068 28.0295 28.5614Q27.9478 28.616 27.8612 28.6623Q27.7746 28.7086 27.6839 28.7461Q27.5932 28.7837 27.4992 28.8122Q27.4052 28.8407 27.3089 28.8599Q27.2126 28.8791 27.1148 28.8887Q27.0171 28.8983 26.9189 28.8983L1.999 28.8983Q1.9008 28.8983 1.80306 28.8887Q1.70533 28.8791 1.60901 28.8599Q1.5127 28.8407 1.41872 28.8122Q1.32474 28.7837 1.23402 28.7461Q1.14329 28.7086 1.05668 28.6623Q0.970069 28.616 0.888415 28.5614Q0.806761 28.5068 0.730848 28.4445Q0.654935 28.3823 0.585494 28.3128Q0.516052 28.2434 0.453752 28.1675Q0.391452 28.0915 0.336892 28.0099Q0.282333 27.9282 0.236039 27.8416Q0.189746 27.755 0.152165 27.6643Q0.114584 27.5736 0.0860763 27.4796Q0.057569 27.3856 0.0384102 27.2893Q0.0192515 27.193 0.00962573 27.0952Q0 26.9975 0 26.8993L0 1.999Q0 1.9008 0.00962573 1.80306Q0.0192515 1.70533 0.0384102 1.60901Q0.057569 1.5127 0.0860763 1.41872Q0.114584 1.32474 0.152165 1.23402Q0.189746 1.14329 0.236039 1.05668Q0.282333 0.970069 0.336892 0.888415Q0.391452 0.806761 0.453752 0.730848Q0.516052 0.654935 0.585494 0.585494Q0.654935 0.516052 0.730848 0.453752Q0.806761 0.391452 0.888415 0.336892Q0.970069 0.282333 1.05668 0.236039Q1.14329 0.189746 1.23402 0.152165Q1.32474 0.114584 1.41872 0.0860763Q1.5127 0.057569 1.60901 0.0384102Q1.70533 0.0192515 1.80306 0.00962573Q1.9008 0 1.999 0Z" transform="translate(10.261194 10.254237)" id="Rectangle" fill="none" fill-rule="evenodd" stroke="#262332" stroke-width="2" stroke-linecap="round" />
      <path d="M0 0.466102L49.3043 0.466102" transform="translate(50.373135 10.720339)" id="Path-3" fill="none" fill-rule="evenodd" stroke="#262332" stroke-width="2" stroke-linecap="round" />
      <path d="M0 0.466102L49.3043 0.466102" transform="translate(50.373135 23.771187)" id="Path-3-Copy" fill="none" fill-rule="evenodd" stroke="#262332" stroke-width="2" stroke-linecap="round" />
      <path d="M0 0.466102L28.9179 0.466102" transform="translate(50.373135 36.822033)" id="Path-3-Copy-2" fill="none" fill-rule="evenodd" stroke="#262332" stroke-width="2" stroke-linecap="round" />
    </g>
    <path d="M0 0.5L348 0.5" transform="translate(466 58)" id="Stroke-10" fill="none" fill-rule="evenodd" stroke="#262332" stroke-width="2" stroke-linecap="round" />
    <g id="Group-9" transform="translate(635 346)">
      <path d="M44.8649 0L0 0L12.3156 67.501L44.8649 67.501L77.4131 67.501L89.7297 0L44.8649 0Z" transform="translate(17.039537 153.87833)" id="Fill-1" fill="#FFFFFF" fill-rule="evenodd" stroke="none" />
      <path d="M44.8639 0L0 0L12.3147 67.5001L44.8639 67.5001L77.4131 67.5001L89.7288 0L44.8639 0Z" transform="translate(17.040094 153.8786)" id="Stroke-2" fill="none" fill-rule="evenodd" stroke="#262332" stroke-width="2" stroke-linecap="round" />
      <path d="M53.9481 0C53.9481 0 54.6464 16.2617 56.7422 25.2708C58.8389 34.28 47.5113 49.8107 47.2364 56.8757C46.9625 63.9416 49.0574 78.5007 42.7709 84.7891C36.4826 91.0795 31.6318 95.4823 28.8377 105.102C26.0427 114.723 7.84086 122.2 7.84086 122.2C7.84086 122.2 0 109.365 0 102.377C0 95.3885 6.90114 82.0072 6.44336 70.8134C5.78221 54.664 16.2621 46.3218 19.0571 37.8357C21.8521 29.3504 25.6546 17.0039 32.6411 12.811C39.6268 8.61806 46.9625 5.35865 53.9481 0" transform="translate(59.495216 31.678658)" id="Fill-4" fill="url(#gradient_1)" fill-rule="evenodd" stroke="none" />
      <path d="M53.9481 0C53.9481 0 54.6464 16.2617 56.7422 25.2708C58.8389 34.28 47.5113 49.8107 47.2364 56.8757C46.9625 63.9416 49.0574 78.5007 42.7709 84.7891C36.4826 91.0795 31.6318 95.4823 28.8377 105.102C26.0427 114.723 7.84086 122.2 7.84086 122.2C7.84086 122.2 0 109.365 0 102.377C0 95.3885 6.90114 82.0072 6.44336 70.8134C5.78221 54.664 16.2621 46.3218 19.0571 37.8357C21.8521 29.3504 25.6546 17.0039 32.6411 12.811C39.6268 8.61806 46.9625 5.35865 53.9481 0Z" transform="translate(53.923786 31.678658)" id="Stroke-6" fill="none" fill-rule="evenodd" stroke="#262332" stroke-width="2" stroke-linecap="round" />
      <path d="M0 100.769C0 100.769 8.18721 54.9733 32.3282 0" transform="translate(61.764458 53.10918)" id="Stroke-8" fill="none" fill-rule="evenodd" stroke="#262332" stroke-width="2" stroke-linecap="round" />
      <path d="M3.84482 0C3.84482 0 2.96546 20.4779 0.325531 31.8222C-2.31347 43.1674 11.9494 62.7238 12.2957 71.6205C12.6421 80.5182 10.0022 98.8504 17.9192 106.77C25.8371 114.69 31.9462 120.234 35.4655 132.348C38.9838 144.463 61.9047 153.879 61.9047 153.879C61.9047 153.879 71.7763 137.716 71.7763 128.916C71.7763 120.116 63.0877 103.266 63.6643 89.1706C64.4963 68.8339 51.2995 58.3303 47.7802 47.6445C44.2618 36.9588 39.4722 21.4123 30.6759 16.1326C21.8786 10.8529 12.6421 6.74731 3.84482 0" transform="translate(5.571429 1.3200041E-14)" id="Fill-10" fill="url(#gradient_1)" fill-rule="evenodd" stroke="none" />
      <path d="M3.84482 0C3.84482 0 2.96546 20.4779 0.325531 31.8222C-2.31347 43.1674 11.9494 62.7238 12.2957 71.6205C12.6421 80.5182 10.0022 98.8504 17.9192 106.77C25.8371 114.69 31.9462 120.234 35.4655 132.348C38.9838 144.463 61.9047 153.879 61.9047 153.879C61.9047 153.879 71.7763 137.716 71.7763 128.916C71.7763 120.116 63.0877 103.266 63.6643 89.1706C64.4963 68.8339 51.2995 58.3303 47.7802 47.6445C44.2618 36.9588 39.4722 21.4123 30.6759 16.1326C21.8786 10.8529 12.6421 6.74731 3.84482 0Z" id="Stroke-12" fill="none" fill-rule="evenodd" stroke="#262332" stroke-width="2" stroke-linecap="round" />
      <path d="M0 0C30.3977 69.225 40.7086 126.893 40.7086 126.893" transform="translate(21.195639 26.985262)" id="Stroke-14" fill="none" fill-rule="evenodd" stroke="#262332" stroke-width="2" stroke-linecap="round" />
      <path d="M9.24486 5.21654L0 0" transform="translate(47.684437 126.325615)" id="Stroke-16" fill="none" fill-rule="evenodd" stroke="#262332" stroke-width="2" stroke-linecap="round" />
      <path d="M19.4006 7.91119L0 0" transform="translate(25.789095 82.52121)" id="Stroke-18" fill="none" fill-rule="evenodd" stroke="#262332" stroke-width="2" stroke-linecap="round" />
      <path d="M8.671 3.14237L0 0" transform="translate(21.195545 44.58466)" id="Stroke-20" fill="none" fill-rule="evenodd" stroke="#262332" stroke-width="2" stroke-linecap="round" />
      <path d="M0 10.3513L3.98357 0" transform="translate(35.489697 52.015343)" id="Stroke-22" fill="none" fill-rule="evenodd" stroke="#262332" stroke-width="2" stroke-linecap="round" />
      <path d="M0 8.21307L4.62243 0" transform="translate(52.30733 103.250435)" id="Stroke-24" fill="none" fill-rule="evenodd" stroke="#262332" stroke-width="2" stroke-linecap="round" />
      <path d="M0 0.464435L77.4494 0.464435" transform="translate(27.353739 164.18869)" id="Stroke-28" fill="none" fill-rule="evenodd" stroke="#262332" stroke-width="2" stroke-linecap="round" />
      <path d="M66.6566 0.464435L0 0.464435" transform="translate(28.576296 216.6408)" id="Stroke-32" fill="none" fill-rule="evenodd" stroke="#262332" stroke-width="2" stroke-linecap="round" />
    </g>
    <g id="Group-7" transform="translate(848 325)">
      <path d="M1.999 0L42.4454 0Q42.5436 0 42.6414 0.00962573Q42.7391 0.0192515 42.8354 0.0384102Q42.9317 0.057569 43.0257 0.0860763Q43.1197 0.114584 43.2104 0.152165Q43.3012 0.189746 43.3878 0.236039Q43.4744 0.282333 43.556 0.336892Q43.6377 0.391452 43.7136 0.453752Q43.7895 0.516052 43.8589 0.585494Q43.9284 0.654935 43.9907 0.730848Q44.053 0.806761 44.1075 0.888415Q44.1621 0.970069 44.2084 1.05668Q44.2547 1.14329 44.2923 1.23402Q44.3299 1.32474 44.3584 1.41872Q44.3869 1.5127 44.406 1.60901Q44.4252 1.70533 44.4348 1.80306Q44.4444 1.9008 44.4444 1.999L44.4444 42.4454Q44.4444 42.5436 44.4348 42.6414Q44.4252 42.7391 44.406 42.8354Q44.3869 42.9317 44.3584 43.0257Q44.3299 43.1197 44.2923 43.2104Q44.2547 43.3012 44.2084 43.3878Q44.1621 43.4744 44.1075 43.556Q44.053 43.6377 43.9907 43.7136Q43.9284 43.7895 43.8589 43.8589Q43.7895 43.9284 43.7136 43.9907Q43.6377 44.053 43.556 44.1075Q43.4744 44.1621 43.3878 44.2084Q43.3012 44.2547 43.2104 44.2923Q43.1197 44.3299 43.0257 44.3584Q42.9317 44.3869 42.8354 44.406Q42.7391 44.4252 42.6414 44.4348Q42.5436 44.4444 42.4454 44.4444L1.999 44.4444Q1.9008 44.4444 1.80306 44.4348Q1.70533 44.4252 1.60901 44.406Q1.5127 44.3869 1.41872 44.3584Q1.32474 44.3299 1.23402 44.2923Q1.14329 44.2547 1.05668 44.2084Q0.970069 44.1621 0.888415 44.1075Q0.806761 44.053 0.730848 43.9907Q0.654935 43.9284 0.585494 43.8589Q0.516052 43.7895 0.453752 43.7136Q0.391452 43.6377 0.336892 43.556Q0.282333 43.4744 0.236039 43.3878Q0.189746 43.3012 0.152165 43.2104Q0.114584 43.1197 0.0860763 43.0257Q0.057569 42.9317 0.0384102 42.8354Q0.0192515 42.7391 0.00962573 42.6414Q0 42.5436 0 42.4454L0 1.999Q0 1.9008 0.00962573 1.80306Q0.0192515 1.70533 0.0384102 1.60901Q0.057569 1.5127 0.0860763 1.41872Q0.114584 1.32474 0.152165 1.23402Q0.189746 1.14329 0.236039 1.05668Q0.282333 0.970069 0.336892 0.888415Q0.391452 0.806761 0.453752 0.730848Q0.516052 0.654935 0.585494 0.585494Q0.654935 0.516052 0.730848 0.453752Q0.806761 0.391452 0.888415 0.336892Q0.970069 0.282333 1.05668 0.236039Q1.14329 0.189746 1.23402 0.152165Q1.32474 0.114584 1.41872 0.0860763Q1.5127 0.057569 1.60901 0.0384102Q1.70533 0.0192515 1.80306 0.00962573Q1.9008 0 1.999 0Z" transform="translate(5.5555553 5.5555553)" id="Rectangle" fill="url(#gradient_1)" fill-rule="evenodd" stroke="none" />
      <path d="M1.999 0L42.4454 0Q42.5436 0 42.6414 0.00962573Q42.7391 0.0192515 42.8354 0.0384102Q42.9317 0.057569 43.0257 0.0860763Q43.1197 0.114584 43.2104 0.152165Q43.3012 0.189746 43.3878 0.236039Q43.4744 0.282333 43.556 0.336892Q43.6377 0.391452 43.7136 0.453752Q43.7895 0.516052 43.8589 0.585494Q43.9284 0.654935 43.9907 0.730848Q44.053 0.806761 44.1075 0.888415Q44.1621 0.970069 44.2084 1.05668Q44.2547 1.14329 44.2923 1.23402Q44.3299 1.32474 44.3584 1.41872Q44.3869 1.5127 44.406 1.60901Q44.4252 1.70533 44.4348 1.80306Q44.4444 1.9008 44.4444 1.999L44.4444 42.4454Q44.4444 42.5436 44.4348 42.6414Q44.4252 42.7391 44.406 42.8354Q44.3869 42.9317 44.3584 43.0257Q44.3299 43.1197 44.2923 43.2104Q44.2547 43.3012 44.2084 43.3878Q44.1621 43.4744 44.1075 43.556Q44.053 43.6377 43.9907 43.7136Q43.9284 43.7895 43.8589 43.8589Q43.7895 43.9284 43.7136 43.9907Q43.6377 44.053 43.556 44.1075Q43.4744 44.1621 43.3878 44.2084Q43.3012 44.2547 43.2104 44.2923Q43.1197 44.3299 43.0257 44.3584Q42.9317 44.3869 42.8354 44.406Q42.7391 44.4252 42.6414 44.4348Q42.5436 44.4444 42.4454 44.4444L1.999 44.4444Q1.9008 44.4444 1.80306 44.4348Q1.70533 44.4252 1.60901 44.406Q1.5127 44.3869 1.41872 44.3584Q1.32474 44.3299 1.23402 44.2923Q1.14329 44.2547 1.05668 44.2084Q0.970069 44.1621 0.888415 44.1075Q0.806761 44.053 0.730848 43.9907Q0.654935 43.9284 0.585494 43.8589Q0.516052 43.7895 0.453752 43.7136Q0.391452 43.6377 0.336892 43.556Q0.282333 43.4744 0.236039 43.3878Q0.189746 43.3012 0.152165 43.2104Q0.114584 43.1197 0.0860763 43.0257Q0.057569 42.9317 0.0384102 42.8354Q0.0192515 42.7391 0.00962573 42.6414Q0 42.5436 0 42.4454L0 1.999Q0 1.9008 0.00962573 1.80306Q0.0192515 1.70533 0.0384102 1.60901Q0.057569 1.5127 0.0860763 1.41872Q0.114584 1.32474 0.152165 1.23402Q0.189746 1.14329 0.236039 1.05668Q0.282333 0.970069 0.336892 0.888415Q0.391452 0.806761 0.453752 0.730848Q0.516052 0.654935 0.585494 0.585494Q0.654935 0.516052 0.730848 0.453752Q0.806761 0.391452 0.888415 0.336892Q0.970069 0.282333 1.05668 0.236039Q1.14329 0.189746 1.23402 0.152165Q1.32474 0.114584 1.41872 0.0860763Q1.5127 0.057569 1.60901 0.0384102Q1.70533 0.0192515 1.80306 0.00962573Q1.9008 0 1.999 0Z" id="Rectangle" fill="none" fill-rule="evenodd" stroke="#262332" stroke-width="2" stroke-linecap="round" />
      <path d="M0 6.7098L8.4143 15.1241L23.5384 8.39556e-16" transform="translate(10.185185 14.814815)" id="Path-5" fill="none" fill-rule="evenodd" stroke="#262332" stroke-width="2" stroke-linecap="round" />
    </g>
    <path d="M12.5 25C19.4036 25 25 19.4036 25 12.5C25 5.59644 19.4036 0 12.5 0C5.59644 0 0 5.59644 0 12.5C0 19.4036 5.59644 25 12.5 25Z" transform="translate(385 0)" id="Oval" fill="none" fill-rule="evenodd" stroke="#262332" stroke-width="2" stroke-linecap="round" />
    <g id="Group-8" transform="translate(150 520)">
      <g id="Group">
        <path d="M0 63L46.7742 63L46.7742 0L0 0L0 63Z" transform="translate(11.225806 0)" id="Fill-59" fill="#FFFFFF" fill-rule="evenodd" stroke="none" />
        <path d="M0 63L46.7742 63L46.7742 0L0 0L0 63Z" transform="translate(11.225806 0)" id="Stroke-61" fill="#FFFFFF" fill-rule="evenodd" stroke="none" />
        <path d="M0 63L46.7742 63L46.7742 0L0 0L0 63Z" transform="translate(11.225806 0)" id="Stroke-61" fill="none" fill-rule="evenodd" stroke="#262332" stroke-width="2" stroke-linecap="round" />
        <path d="M0.467742 0L0.467742 5.32424" transform="translate(49.60497 45.45587)" id="Stroke-67" fill="none" fill-rule="evenodd" stroke="#262332" stroke-width="2" stroke-linecap="round" />
        <path d="M0.467742 0L0.467742 28.9773" transform="translate(49.60497 11.637898)" id="Stroke-64" fill="none" fill-rule="evenodd" stroke="#262332" stroke-width="2" stroke-linecap="round" />
        <path d="M5.93462 34.2794L11.2258 34.2794L11.2258 0L5.93462 0C2.65603 0 0 2.49218 0 5.56608L0 28.7133C0 31.7872 2.65603 34.2794 5.93462 34.2794Z" transform="translate(0 9.264706)" id="Stroke-62" fill="none" fill-rule="evenodd" stroke="#262332" stroke-width="2" stroke-linecap="round" />
      </g>
    </g>
    <path d="M1.999 0L84.001 0Q84.0992 0 84.1969 0.00962573Q84.2947 0.0192515 84.391 0.0384102Q84.4873 0.057569 84.5813 0.0860763Q84.6752 0.114584 84.766 0.152165Q84.8567 0.189746 84.9433 0.236039Q85.0299 0.282333 85.1116 0.336892Q85.1932 0.391452 85.2691 0.453752Q85.3451 0.516052 85.4145 0.585494Q85.4839 0.654935 85.5462 0.730848Q85.6085 0.806761 85.6631 0.888415Q85.7177 0.970069 85.764 1.05668Q85.8102 1.14329 85.8478 1.23402Q85.8854 1.32474 85.9139 1.41872Q85.9424 1.5127 85.9616 1.60901Q85.9807 1.70533 85.9904 1.80306Q86 1.9008 86 1.999L86 53.001Q86 53.0992 85.9904 53.1969Q85.9807 53.2947 85.9616 53.391Q85.9424 53.4873 85.9139 53.5813Q85.8854 53.6753 85.8478 53.766Q85.8102 53.8567 85.764 53.9433Q85.7177 54.0299 85.6631 54.1116Q85.6086 54.1932 85.5463 54.2691Q85.484 54.3451 85.4145 54.4145Q85.3451 54.4839 85.2691 54.5462Q85.1932 54.6085 85.1116 54.6631Q85.0299 54.7177 84.9433 54.764Q84.8567 54.8102 84.766 54.8478Q84.6752 54.8854 84.5813 54.9139Q84.4873 54.9424 84.391 54.9616Q84.2947 54.9807 84.1969 54.9904Q84.0992 55 84.001 55L1.999 55Q1.9008 55 1.80306 54.9904Q1.70533 54.9807 1.60901 54.9616Q1.5127 54.9424 1.41872 54.9139Q1.32474 54.8854 1.23402 54.8478Q1.14329 54.8102 1.05668 54.764Q0.970069 54.7177 0.888415 54.6631Q0.806761 54.6085 0.730848 54.5462Q0.654935 54.4839 0.585494 54.4145Q0.516052 54.3451 0.453752 54.2691Q0.391452 54.1932 0.336892 54.1116Q0.282333 54.0299 0.236039 53.9433Q0.189746 53.8567 0.152165 53.766Q0.114584 53.6753 0.0860763 53.5813Q0.057569 53.4873 0.0384102 53.391Q0.0192515 53.2947 0.00962573 53.1969Q0 53.0992 0 53.001L0 1.999Q0 1.9008 0.00962573 1.80306Q0.0192515 1.70533 0.0384102 1.60901Q0.057569 1.5127 0.0860763 1.41872Q0.114584 1.32474 0.152165 1.23402Q0.189746 1.14329 0.236039 1.05668Q0.282333 0.970069 0.336892 0.888415Q0.391452 0.806761 0.453752 0.730848Q0.516052 0.654935 0.585494 0.585494Q0.654935 0.516052 0.730848 0.453752Q0.806761 0.391452 0.888415 0.336892Q0.970069 0.282333 1.05668 0.236039Q1.14329 0.189746 1.23402 0.152165Q1.32474 0.114584 1.41872 0.0860763Q1.5127 0.057569 1.60901 0.0384102Q1.70533 0.0192515 1.80306 0.00962573Q1.9008 0 1.999 0L1.999 0Z" transform="translate(234 133)" id="Rectangle" fill="#F5F5F5" fill-rule="evenodd" stroke="none" />
    <g id="Group-10" transform="translate(244 125)">
      <path d="M0 0.466667L82.3971 0.466667" transform="translate(-8.4818047E-13 55.066666)" id="Path-8" fill="none" fill-rule="evenodd" stroke="#262332" stroke-width="2" stroke-linecap="round" />
      <path d="M0 40.8272C0 40.8272 3.56216 30.5117 12.8244 34.809C22.0866 39.1064 24.6495 14.6424 32.4328 18.1477C40.2161 21.653 60.1568 24.7333 66.4007 0" transform="translate(6.857791 1.32634645E-14)" id="Path-9" fill="none" fill-rule="evenodd" stroke="#262332" stroke-width="2" stroke-linecap="round" />
      <path d="M0.466292 9.90915L0.466292 0" transform="translate(14.784757 45.733334)" id="Path-10" fill="none" fill-rule="evenodd" stroke="#262332" stroke-width="2" stroke-linecap="round" />
      <path d="M0.466292 23.9091L0.466292 0" transform="translate(40.897118 31.733334)" id="Path-10-Copy" fill="none" fill-rule="evenodd" stroke="#262332" stroke-width="2" stroke-linecap="round" />
      <path d="M0.466292 28.5758L0.466292 0" transform="translate(67.009476 27.066668)" id="Path-10-Copy-2" fill="none" fill-rule="evenodd" stroke="#262332" stroke-width="2" stroke-linecap="round" />
    </g>
    <path d="M25.5 51C39.5833 51 51 39.5833 51 25.5C51 11.4167 39.5833 0 25.5 0C11.4167 0 0 11.4167 0 25.5C0 39.5833 11.4167 51 25.5 51Z" transform="translate(551 645)" id="Oval-Copy-3" fill="#F5F5F5" fill-rule="evenodd" stroke="none" />
    <path d="M9.96658 0.259121L9.9871 49.8424M-2.18587e-08 10.6481L144 10.6481" transform="translate(566 660)" id="Combined-Shape" fill="none" fill-rule="evenodd" stroke="#262332" stroke-width="2" stroke-linecap="round" />
  </g>
</svg>