<?xml version="1.0" encoding="UTF-8"?>
<svg width="40px" height="40px" viewBox="0 0 40 40" version="1.1" xmlns="http://www.w3.org/2000/svg" xmlns:xlink="http://www.w3.org/1999/xlink">
    <title>A8C3A77A-B354-432A-807E-E8FF03194BC6</title>
    <defs>
        <linearGradient x1="13.5216514%" y1="0%" x2="86.4783486%" y2="100%" id="linearGradient-1">
            <stop stop-color="#009EFF" offset="0%"></stop>
            <stop stop-color="#30CCC6" offset="100%"></stop>
        </linearGradient>
    </defs>
    <g id="Desktop" stroke="none" stroke-width="1" fill="none" fill-rule="evenodd">
        <g id="Service---mobile-app" transform="translate(-532.000000, -2090.000000)" fill="url(#linearGradient-1)">
            <g id="icon/code-copy-6" transform="translate(532.000000, 2090.000000)">
                <path d="M28.3665627,9.3625 C31.0840627,9.3625 33.9615627,10.8525 36.0090627,13.42 C29.2965627,17.1225 30.3840627,26.7675 37.1665627,29.35 L36.8371877,30.0800146 C36.1623049,31.5621606 35.7052737,32.4540857 34.8009866,33.8647491 L34.5840627,34.2 C32.9065627,36.77 30.5440627,39.9725 27.6115627,39.995 C25.0090627,40.0225 24.3390627,38.29 20.8065627,38.31 C17.2740627,38.3275 16.5390627,40.025 13.9315627,40.000541 C11.0015627,39.975 8.76156273,37.085 7.08406273,34.515 C2.39656273,27.3325 1.90156273,18.9 4.79406273,14.415 C6.85156273,11.23 10.0965627,9.3675 13.1440627,9.3675 C16.2465627,9.3675 18.1990627,11.08 20.7690627,11.08 C23.2615627,11.08 24.7790627,9.3625 28.3665627,9.3625 Z M28.3665627,12.3625 C27.2727629,12.3625 26.5024991,12.543372 25.2151131,13.0285252 L24.4829062,13.3061349 C24.2801729,13.3815275 24.1084189,13.4433412 23.9365757,13.5022719 C22.8301461,13.8817032 21.8606062,14.08 20.7690627,14.08 C19.597474,14.08 18.5450905,13.8642202 17.2843042,13.4472912 L16.9026208,13.3176004 L16.1460734,13.0485584 C14.7217474,12.5392067 14.0164131,12.3675 13.1440627,12.3675 C11.1019638,12.3675 8.8033488,13.7373516 7.31522111,16.0409645 C4.99021741,19.6460264 5.6985448,26.902885 9.59626232,32.8752277 L9.96861395,33.4332627 C11.6188316,35.8497383 12.9281894,36.9915071 13.96001,37.0005595 C14.3339511,37.0039544 14.6015326,36.9458524 15.0780654,36.7490707 L15.8405808,36.4131749 C17.5152489,35.669854 18.8487136,35.3196624 20.7895779,35.3100481 C22.6382311,35.2995815 23.9331437,35.60892 25.4662171,36.2756074 L26.3237946,36.6647834 C26.9107603,36.9289082 27.1748127,36.9994476 27.5885455,36.9950883 C28.62222,36.9871573 30.1323815,35.5315946 32.0717736,32.5603649 L32.4267588,32.0090231 C32.700939,31.575829 32.9264338,31.198194 33.1438687,30.8004851 L33.2487502,30.603 L33.1178254,30.5069887 C27.7978096,26.4655462 26.9295505,18.5236258 31.2404102,13.4777717 L31.4047502,13.289 L31.2485829,13.1958528 C30.3762108,12.6986907 29.4650699,12.4127446 28.6009897,12.3685394 L28.3665627,12.3625 Z M27.5815627,-1.77635684e-14 C27.9390627,2.43 26.9515627,4.81 25.6465627,6.4925 C24.2515627,8.3 21.8440627,9.6975 19.5140627,9.625 C19.0890627,7.2975 20.1790627,4.9025 21.5040627,3.29 C22.9565627,1.5125 25.4490627,0.1475 27.5815627,-1.77635684e-14 Z" id="Combined-Shape"></path>
            </g>
        </g>
    </g>
</svg>